# xmcd
#
# Track frame offsets: 
#        150
#        16689
#        32673
#        49259
#        66095
#        83333
#        101430
#        117968
#        134987
#        152634
#        170321
#        185182
#        201126
#        217527
#
# Disc length: 3340 seconds
#
# Revision: 0
# Processed by: cddbd v1.5.1PL2 Copyright (c) Steve Scherf et al.
# Submitted via: ExactAudioCopy v0.95b2
#
DISCID=b40d0a0e
DTITLE=Игра Слов - Людям О Людях
DYEAR=2006
DGENRE=Pop
TTITLE0=Алина Кабаева
TTITLE1=Властелин Колец
TTITLE2=Наедине С Одиночеством
TTITLE3=Анастасия Волочкова
TTITLE4=Прасковья Из Подмосковья
TTITLE5=Случайная Встреча
TTITLE6=Ксения Собчак
TTITLE7=GANJAN
TTITLE8=Бачинский И Стиллавин
TTITLE9=Экологический Министр
TTITLE10=Властелин Колец (Remix Dj Грув)
TTITLE11=Алина Кабаева (Remix Dj Smash)
TTITLE12=Алина Кабаева (Remix FSB)
TTITLE13=Алина Кабаева (Soul Dub Dj Sasha Vibe)
EXTD=
EXTT0=
EXTT1=
EXTT2=
EXTT3=
EXTT4=
EXTT5=
EXTT6=
EXTT7=
EXTT8=
EXTT9=
EXTT10=
EXTT11=
EXTT12=
EXTT13=
PLAYORDER=
